<svg viewBox="0 0 845 170" xmlns="http://www.w3.org/2000/svg">
  <defs>
    <linearGradient id="nhMarkGrad" x1="0%" y1="0%" x2="85%" y2="100%">
      <stop offset="0%" stop-color="#00E28A"/>
      <stop offset="45%" stop-color="#2E8FE0"/>
      <stop offset="100%" stop-color="#7C3AED"/>
    </linearGradient>
  </defs>
  <g transform="translate(20,15) scale(0.4819)">
    <path d="M83.55,205.75 C83.34,205.06 82.95,202.59 82.68,200.25 C82.41,197.92 80.86,193.16 79.23,189.68 C74.02,178.54 59.51,168.20 48.87,168.05 C43.51,167.98 42.88,166.58 43.21,155.35 L43.50,145.50 L47.00,145.17 C54.17,144.49 62.96,147.00 75.34,153.26 C78.74,154.98 81.56,155.84 82.07,155.33 C82.56,154.84 83.08,144.78 83.23,132.97 L83.50,111.50 L94.75,111.22 L106.00,110.93 L106.00,158.97 L106.00,207.00 L94.97,207.00 C87.02,207.00 83.83,206.65 83.55,205.75 Z M9.48,167.15 C9.22,166.88 9.00,145.37 9.00,119.33 L9.00,72.00 L20.00,72.00 C30.58,72.00 31.00,72.08 31.00,74.14 C31.00,78.82 35.19,89.94 38.91,95.13 C41.06,98.14 44.63,101.86 46.83,103.38 C52.69,107.44 61.89,110.95 66.75,110.98 L71.00,111.00 L71.00,122.50 L71.00,134.00 L68.57,134.00 C64.85,134.00 52.76,131.28 47.87,129.35 C45.46,128.40 41.43,126.36 38.89,124.81 C30.73,119.83 31.07,118.99 30.77,144.75 L30.50,167.50 L20.23,167.57 C14.59,167.60 9.75,167.41 9.48,167.15 Z" fill="url(#nhMarkGrad)" fill-rule="evenodd"/>
  </g>
  <text x="100" y="112" font-family="'Manrope', Arial, sans-serif" font-weight="800" font-size="66" fill="#FFFFFF" letter-spacing="-1">Neural Horizons AI</text>
</svg>